#N canvas 244 -1315 1480 901 12;
#X obj 475 724 dac~;
#X obj 41 20 loadbang;
#X obj 41 71 delay 100;
#X msg 41 195 \; pd dsp 1;
#X msg 40 276 \; pd dsp 0;
#N canvas 0 22 450 278 (subpatch) 0;
#X array first 49527 float 4;
#X coords 0 1 49526 -1 200 140 1;
#X restore 207 670 graph;
#X obj 401 118 soundfiler;
#X msg 401 70 read -resize if-it-quacks.wav first;
#X floatatom 401 159 10 0 0 0 - - -;
#X obj 234 384 phasor~;
#X obj 279 436 *~;
#X obj 279 475 tabread4~ first;
#X obj 243 286 expr 44100/$f1;
#X obj 154 96 delay 500;
#X obj 180 19 bng 15 250 50 0 empty empty empty 17 7 0 10 -262144 -1
-1;
#X obj 859 266 soundfiler;
#X floatatom 859 307 10 0 0 0 - - -;
#X obj 775 492 phasor~;
#X obj 820 544 *~;
#X obj 747 355 expr 44100/$f1;
#N canvas 0 22 450 278 (subpatch) 0;
#X array second 137259 float 2;
#X coords 0 1 137259 -1 200 140 1;
#X restore 750 659 graph;
#X msg 859 218 read -resize CRYSTAL17D.wav second;
#X obj 820 583 tabread4~ second;
#X msg 801 413 0;
#X msg 293 331 0;
#X obj 154 152 delay 5000;
#X obj 741 238 delay 5000;
#X obj 573 275 delay 5000;
#X obj 541 642 *~ 0.25;
#X obj 279 509 *~ 1.5;
#X obj 1121 627 dac~;
#X obj 1133 539 *~;
#X msg 1224 333 0.25;
#X obj 1325 265 delay 1333;
#X obj 1131 148 delay 1333;
#X obj 480 18 delay 1333;
#X obj 1117 55 bng 15 250 50 0 empty empty empty 17 7 0 10 -262144
-1 -1;
#X msg 632 392 -0.25;
#X msg 194 274 0.75;
#X msg 701 367 0.8;
#X msg 154 326 -0.75;
#X msg 1041 327 440;
#X obj 1071 407 osc~;
#X msg 1132 321 330;
#X msg 1227 469 0.5;
#X obj 1138 430 osc~;
#X msg 1123 373 331;
#X msg 1173 384 441;
#X connect 1 0 2 0;
#X connect 2 0 3 0;
#X connect 2 0 13 0;
#X connect 2 0 35 0;
#X connect 6 0 8 0;
#X connect 7 0 6 0;
#X connect 8 0 12 0;
#X connect 8 0 10 1;
#X connect 9 0 10 0;
#X connect 10 0 11 0;
#X connect 11 0 29 0;
#X connect 12 0 9 0;
#X connect 13 0 7 0;
#X connect 13 0 25 0;
#X connect 13 0 38 0;
#X connect 14 0 2 0;
#X connect 15 0 16 0;
#X connect 16 0 19 0;
#X connect 16 0 18 1;
#X connect 17 0 18 0;
#X connect 18 0 22 0;
#X connect 19 0 17 0;
#X connect 21 0 15 0;
#X connect 22 0 28 0;
#X connect 23 0 17 0;
#X connect 24 0 9 0;
#X connect 25 0 40 0;
#X connect 25 0 21 0;
#X connect 25 0 37 0;
#X connect 25 0 26 0;
#X connect 26 0 39 0;
#X connect 26 0 27 0;
#X connect 27 0 13 0;
#X connect 28 0 0 0;
#X connect 28 0 0 1;
#X connect 29 0 0 0;
#X connect 29 0 0 1;
#X connect 31 0 30 0;
#X connect 31 0 30 1;
#X connect 32 0 31 1;
#X connect 33 0 44 0;
#X connect 33 0 34 0;
#X connect 33 0 43 0;
#X connect 33 0 46 0;
#X connect 34 0 32 0;
#X connect 34 0 33 0;
#X connect 34 0 41 0;
#X connect 34 0 47 0;
#X connect 35 0 36 0;
#X connect 36 0 34 0;
#X connect 37 0 17 0;
#X connect 38 0 9 0;
#X connect 39 0 17 0;
#X connect 40 0 9 0;
#X connect 41 0 42 0;
#X connect 42 0 31 0;
#X connect 43 0 42 0;
#X connect 44 0 31 1;
#X connect 45 0 31 0;
#X connect 46 0 45 0;
#X connect 47 0 45 0;
